PathFileType	4	(X/Y/Z)	22_2_105_p1_0-237_filt_butterworth.trc
DataRate	CameraRate	NumFrames	NumMarkers	Units	OrigDataRate	OrigDataStartFrame	OrigNumFrames
60.0	60.0	6	27	m	60.0	0	237
Frame#	Time	RHip			RKnee			RAnkle			RBigToe			RSmallToe			RHeel			LHip			LKnee			LAnkle			LBigToe			LSmallToe			LHeel			Neck			Head			Nose			RShoulder			RElbow			RWrist			RThumb			RIndex			RPinky			LShoulder			LElbow			LWrist			LThumb			LIndex			LPinky			
		X1	Y1	Z1	X2	Y2	Z2	X3	Y3	Z3	X4	Y4	Z4	X5	Y5	Z5	X6	Y6	Z6	X7	Y7	Z7	X8	Y8	Z8	X9	Y9	Z9	X10	Y10	Z10	X11	Y11	Z11	X12	Y12	Z12	X13	Y13	Z13	X14	Y14	Z14	X15	Y15	Z15	X16	Y16	Z16	X17	Y17	Z17	X18	Y18	Z18	X19	Y19	Z19	X20	Y20	Z20	X21	Y21	Z21	X22	Y22	Z22	X23	Y23	Z23	X24	Y24	Z24	X25	Y25	Z25	X26	Y26	Z26	X27	Y27	Z27	
0	0.0	0.26824946289392615	0.6271100415937025	1.0370488928326687	0.27937255895273533	0.7637585667910425	1.4186016395786374	0.298070684735153	0.9230715907989716	1.8226771782757014	0.26149408660719353	0.7374111228169412	1.8835983328946257	0.3234314309807665	0.7670789695247588	1.88392291552936	0.2973072043077375	1.0069122250656903	1.873334869389648	0.03790039645203006	0.6920212951481062	1.0502977373741722	0.08174459008099358	0.7947285208482908	1.4174837290706948	0.09149547647654098	0.9041998892410357	1.8115734135049364	0.1021779381583519	0.759081958798279	1.8871341395316366	0.04902984942549067	0.7887801644290131	1.881118133748572	0.11502389903563283	0.9755340013268498	1.864052415268728	0.1115529532831716	0.45832473853439337	0.4890353597137872	0.10383717719622695	0.3441835898610053	0.25084268491938994	0.085054393444127	0.3250300356891777	0.4073861649761458	0.2571737445236091	0.4588193253270133	0.5550676389129947	0.3144818962254319	0.4273477194759069	0.8116844957341124	0.20785585038559554	0.4486173914608133	1.0430091840047082	0.13063071016120034	0.5457045978212836	1.136567639404915	0.12732024803617775	0.5213077429759408	1.1444043382659264	0.13146633744919645	0.4910024703325014	1.1412246672690458	-0.041156406280809604	0.4873049187810602	0.5637543807609655	-0.04934574499568586	0.5321190892624026	0.8141754131123901	0.07244938016528005	0.44627814676577887	1.025963668198671	0.15649061723842952	0.4964447869679459	1.1075773115644936	0.14824168113247735	0.4875909813668429	1.1394928305399334	0.12399453517618492	0.49255716132798477	1.1413800314561589
1	0.0166666666666666	0.2681472691220218	0.6349844681876273	1.0412659128115787	0.2794517085657985	0.764080771273	1.4180712967671987	0.2990933166010543	0.9235503216029843	1.821565064739633	0.25850772595992993	0.7292982121619788	1.8791221422005526	0.319295805292843	0.7682549506372156	1.8843716977708627	0.29635871305220246	1.0025635674314557	1.8682395303625206	0.03848513943400807	0.6883871929798461	1.050153652178876	0.08174056104822441	0.7945495125448641	1.4175374575736013	0.091998761748444	0.9038182506416924	1.8065091506042188	0.10050192126031016	0.7531950733467655	1.884198576287999	0.04952045350709789	0.7888805263123908	1.879673958191501	0.1160843387512998	0.9776254373162612	1.867189184063304	0.11123253675176058	0.45728312216945527	0.48702967878918857	0.10388885247776457	0.34406550207611064	0.25085180340428853	0.08501239407908805	0.32527515473215035	0.40742882230850985	0.25919641127927096	0.4601701607594711	0.5601173298599489	0.3123625912721111	0.42361930506227785	0.8137789451407418	0.20783681081833355	0.44865537617060747	1.042909827892038	0.1280844452013545	0.532941470245736	1.1363777637415649	0.12724092271871817	0.5210240400811916	1.1444322804803	0.13154398786112237	0.49117932944927684	1.141329252116984	-0.041054331554563755	0.4852643650697641	0.5615014050950538	-0.04962310523453818	0.5315615685042043	0.8125175860634568	0.07480754653932695	0.44621450131490625	1.0258639125247617	0.1502865702241568	0.49017299982255325	1.1092149413877137	0.14568323518639384	0.48871810745468003	1.1415808357064652	0.1238481155827394	0.4927335172178932	1.1413698301086042
2	0.0333333333333333	0.2681175624453359	0.6376161279430033	1.0438681653666575	0.2797421123708761	0.7647684901289842	1.4195361566691103	0.2991323943442926	0.9237166199918464	1.8210904502935263	0.2567313533124617	0.7242600087083124	1.8761471281656483	0.31691634392780804	0.7657708711739214	1.8835255873985401	0.29653182781814397	1.0019218727065384	1.865375366632819	0.03898705835294458	0.6854157406285498	1.0500150885037234	0.08175370734368637	0.79445400358234	1.4175785800915033	0.09236310428063148	0.9034637221575641	1.8041280219508589	0.09931963504117564	0.7492508283568501	1.8822870184999538	0.04990910485998056	0.788741278195327	1.8782781620037778	0.11670265918465372	0.978863053730926	1.869106991019334	0.11103720422774818	0.45662240899848067	0.4857779630363007	0.103911917139944	0.34393899607621736	0.2508516194274508	0.08496773953205826	0.3255021426245809	0.4071672737342338	0.26090693590456876	0.4609729287573968	0.5629794906087404	0.3103750788433376	0.41997849839139867	0.8150624867301116	0.20782267053998552	0.4486889084870278	1.0428369191077889	0.12690630595364413	0.5249211387358842	1.1365289192077224	0.12716513756868805	0.5207982190995699	1.1444548619659671	0.13157728607184052	0.4912743736578795	1.1413634768899446	-0.040503663707728205	0.4819600714262259	0.5602477321285326	-0.049821158817429455	0.5311392904288265	0.8113055735841782	0.07623103403034016	0.446247044800086	1.025804553394779	0.14733644248417183	0.4859499157235156	1.1088244541262127	0.14496298449982065	0.48929624777341413	1.1427883926624927	0.123812996323146	0.492819935401302	1.141657411294133
3	0.05	0.26784262165505596	0.6358732531546263	1.0449202858042475	0.280145348529895	0.7658460582097587	1.4228300973638162	0.29852989937355856	0.9235668951809821	1.8214627769715896	0.25619359874655956	0.722786860967485	1.875273214664404	0.316429236545512	0.7602751668543821	1.8816063179653755	0.297434456681499	1.0039664197096276	1.8651623781693465	0.03945085319961726	0.6829583418016228	1.050032863262424	0.08179139276691874	0.7943985229279963	1.4176057636858008	0.09256037980893136	0.9031692832910998	1.804454502234522	0.09880184123989558	0.747889747342362	1.881598996324166	0.0501143746252479	0.7884956235889792	1.8773078078432197	0.11684995289079082	0.9791744813098325	1.8696037811133626	0.11099550327040644	0.45642455156142797	0.4854371583611565	0.10390960190697439	0.34376879029820495	0.2508447937447584	0.08498776081372163	0.3253561764483036	0.40646513714328986	0.2619246702174411	0.46117447756578	0.5633361607440337	0.30910268357726656	0.41739617678995067	0.8154850122217635	0.20781632718617843	0.44871132983788375	1.0427907929818034	0.1273739489057038	0.5237392090009022	1.136985302596151	0.1271008235755851	0.5206658965640312	1.1444684112864476	0.13156046216863843	0.4912735880156564	1.141324567184005	-0.039607329289672095	0.47788785305713294	0.5600401320326522	-0.04996312125832973	0.5308015605926476	0.8104287961759177	0.07665773219546732	0.4463408383542401	1.0257768325638719	0.14814366512130903	0.4840010323605224	1.1062739843945306	0.1464444415526307	0.4891025702870375	1.1430712592421832	0.12392224897665542	0.4928034746077328	1.1424126376069246
4	0.0666666666666666	0.2673943521765288	0.6340762578654091	1.0455020410442895	0.2804197976778338	0.7669071616362372	1.4261573364859281	0.2980613003387734	0.9233324750016954	1.8221839620981597	0.25614530518955764	0.7233031406167005	1.875836914992102	0.31678761807967304	0.7553651913693529	1.8798957795981044	0.2981111012011261	1.0059130141174892	1.8668471609193962	0.039997171074804244	0.6804015753144167	1.0504523326585704	0.08185669027602238	0.7943290830696921	1.417629473457908	0.09264299175139656	0.902988216699631	1.8056584590733409	0.09923239596698585	0.7496721159021507	1.882027475115136	0.05015651218897032	0.7884086887966661	1.87696754262209	0.11686831652560666	0.9790686766407043	1.8690953967008044	0.11107837375125836	0.4565954683761415	0.48583033298186107	0.10389948017766193	0.34356890114238314	0.25083741371827967	0.08523033550734647	0.3239864644359996	0.40555465629016196	0.26224542463469913	0.4610886942322109	0.562507322789866	0.3090303889533751	0.4163696519943208	0.8154842258306135	0.2078162990319642	0.44872380357144603	1.0427616699716538	0.12901713233123463	0.5271949868163303	1.1375769452422835	0.12707250575672616	0.5206327726261226	1.14447549497814	0.13152224978565577	0.49122898938230997	1.141258340610576	-0.03885696687323189	0.47475862053205986	0.5602759048501609	-0.05006861413127875	0.5305360108142831	0.8097923414016044	0.07660984045873984	0.44637438352311604	1.0257522826287038	0.15094661639140036	0.4835012301872431	1.1032201999374542	0.14910653769156154	0.48847572565608316	1.14297620263054	0.12410278449191747	0.4927667328976738	1.1434194997387228
5	0.0833333333333333	0.2675964457603447	0.633959286764173	1.046036628839286	0.28047465902179464	0.7674944270262587	1.4280402160340322	0.2979240894999739	0.9231675548839122	1.8226587873579307	0.25608126030381856	0.7241526902219606	1.8768788622707078	0.31713762525431755	0.7530982864965121	1.8791294378684644	0.2982138878084082	1.0068561490165833	1.869440677321168	0.04054408156479099	0.6781443876452947	1.0513695215900964	0.08194468020420245	0.7942936209909229	1.4176571285974906	0.09266779029495587	0.9029144160242524	1.8063956257496323	0.10048727515512597	0.7539356399129064	1.8834846406289627	0.05013203872916858	0.788530932015601	1.8770125613748654	0.11722468160299042	0.9789626415901915	1.8679272397403124	0.11125596559991924	0.45703458141093656	0.4867927655255866	0.10388928799679742	0.34341790313215953	0.2508294824775833	0.08578725255105554	0.32072472525560586	0.4047543616856013	0.2622508841941931	0.4609948114677825	0.5617825662956409	0.3100628507908827	0.416240302646157	0.8153136593854327	0.20781977050362627	0.4487411869774167	1.042764556607427	0.13103988674971503	0.5310182510588113	1.1381901287047582	0.12710816103064032	0.5206585134610285	1.1444840960921019	0.1314883948360235	0.49118787146463816	1.1411976463275408	-0.0385061342718992	0.47332806046681253	0.5604886822879365	-0.05011843992111155	0.5304006870732418	0.809474684480499	0.07650121116083436	0.4462432018172744	1.025721405612674	0.1537005237166661	0.48378908434069234	1.101256205014744	0.1515703877018346	0.4879912453503764	1.1428238810464897	0.12424247342778576	0.49279637348044547	1.1441926460530412
